<svg width="50" height="50" viewBox="0 0 35 35" fill="none" xmlns="http://www.w3.org/2000/svg">
<g clip-path="url(#clip0_12_138)">
<path d="M17.5 0C10.2638 0 4.375 5.92958 4.375 13.2198C4.375 23.5783 16.2663 34.2738 16.7723 34.7229C16.9723 34.902 17.2313 35.0011 17.4997 35.0014C17.7682 35.0016 18.0273 34.903 18.2277 34.7244C18.7337 34.2738 30.625 23.5783 30.625 13.2198C30.625 5.92958 24.7362 0 17.5 0ZM17.5 20.4167C13.4794 20.4167 10.2083 17.1456 10.2083 13.125C10.2083 9.10437 13.4794 5.83333 17.5 5.83333C21.5206 5.83333 24.7917 9.10437 24.7917 13.125C24.7917 17.1456 21.5206 20.4167 17.5 20.4167Z" fill="#B8BAC1"/>
</g>
<defs>
<clipPath id="clip0_12_138">
<rect width="50" height="50" fill="white"/>
</clipPath>
</defs>
</svg>
