<svg width="30" height="30" viewBox="0 0 30 30" fill="none" xmlns="http://www.w3.org/2000/svg">
<path d="M10 7.5C11.3807 7.5 12.5 6.38071 12.5 5C12.5 3.61929 11.3807 2.5 10 2.5C8.61929 2.5 7.5 3.61929 7.5 5C7.5 6.38071 8.61929 7.5 10 7.5Z" fill="#FF3C3C"/>
<path d="M10 17.5C11.3807 17.5 12.5 16.3807 12.5 15C12.5 13.6193 11.3807 12.5 10 12.5C8.61929 12.5 7.5 13.6193 7.5 15C7.5 16.3807 8.61929 17.5 10 17.5Z" fill="#FF3C3C"/>
<path d="M10 27.5C11.3807 27.5 12.5 26.3807 12.5 25C12.5 23.6193 11.3807 22.5 10 22.5C8.61929 22.5 7.5 23.6193 7.5 25C7.5 26.3807 8.61929 27.5 10 27.5Z" fill="#FF3C3C"/>
<path d="M20 7.5C21.3807 7.5 22.5 6.38071 22.5 5C22.5 3.61929 21.3807 2.5 20 2.5C18.6193 2.5 17.5 3.61929 17.5 5C17.5 6.38071 18.6193 7.5 20 7.5Z" fill="#FF3C3C"/>
<path d="M20 17.5C21.3807 17.5 22.5 16.3807 22.5 15C22.5 13.6193 21.3807 12.5 20 12.5C18.6193 12.5 17.5 13.6193 17.5 15C17.5 16.3807 18.6193 17.5 20 17.5Z" fill="#FF3C3C"/>
<path d="M20 27.5C21.3807 27.5 22.5 26.3807 22.5 25C22.5 23.6193 21.3807 22.5 20 22.5C18.6193 22.5 17.5 23.6193 17.5 25C17.5 26.3807 18.6193 27.5 20 27.5Z" fill="#FF3C3C"/>
</svg>
