<svg width="35" height="35" viewBox="0 0 35 35" fill="none" xmlns="http://www.w3.org/2000/svg">
<path d="M2.14922 24.7188C2.23891 24.6477 8.75 19.9544 10.5372 20.2913C11.3903 20.4422 11.8781 21.0241 12.857 22.1889C13.0145 22.377 13.393 22.8277 13.6872 23.1481C14.3058 22.9464 14.9093 22.7007 15.493 22.4131C18.5057 20.9464 20.9399 18.5122 22.4066 15.4995C22.6944 14.9159 22.94 14.3125 23.1416 13.6938C22.82 13.3984 22.3694 13.02 22.1769 12.8581C21.0175 11.8847 20.4345 11.3969 20.2836 10.5416C19.9741 8.76969 24.6641 2.21375 24.7133 2.15469C24.9261 1.8507 25.2038 1.59782 25.5263 1.41433C25.8488 1.23084 26.2081 1.12134 26.5781 1.09375C28.4791 1.09375 33.9062 8.13422 33.9062 9.31984C33.9062 9.38875 33.8067 16.3931 25.1694 25.1792C16.392 33.8067 9.38875 33.9062 9.31984 33.9062C8.13313 33.9062 1.09375 28.4791 1.09375 26.5781C1.12104 26.2094 1.22988 25.8513 1.41241 25.5298C1.59494 25.2082 1.8466 24.9312 2.14922 24.7188Z" fill="#B8BAC1"/>
</svg>
