<svg width="25" height="25" viewBox="0 0 25 25" fill="none" xmlns="http://www.w3.org/2000/svg">
<path d="M1.49989 14.0001H23.4998C23.6968 14.0001 23.8919 13.9613 24.0739 13.8859C24.256 13.8105 24.4213 13.7 24.5606 13.5607C24.6999 13.4213 24.8104 13.256 24.8858 13.0739C24.9612 12.8919 25 12.6968 25 12.4998C25 12.3028 24.9612 12.1077 24.8858 11.9257C24.8104 11.7436 24.6999 11.5783 24.5606 11.439C24.4213 11.2996 24.2559 11.1892 24.0739 11.1138C23.8919 11.0384 23.6968 10.9996 23.4998 10.9996H1.49989C1.10504 11.0043 0.727929 11.1643 0.450346 11.4452C0.172763 11.726 0.0170898 12.105 0.0170898 12.4999C0.0170898 12.8948 0.172763 13.2737 0.450346 13.5546C0.727929 13.8354 1.10504 13.9955 1.49989 14.0001Z" fill="white"/>
</svg>
