<svg width="20" height="20" viewBox="0 0 20 20" fill="none" xmlns="http://www.w3.org/2000/svg">
<g clip-path="url(#clip0_18_67)">
<path d="M18.7979 8.59622C18.7161 8.58294 18.6333 8.57681 18.5504 8.57789H4.44077L4.74844 8.43479C5.04916 8.29244 5.32276 8.09874 5.55695 7.86239L9.51363 3.9057C10.0347 3.40826 10.1223 2.60802 9.72112 2.00964C9.25422 1.372 8.35882 1.23356 7.72114 1.70046C7.66961 1.7382 7.62067 1.77934 7.57464 1.82362L0.419694 8.97856C-0.139465 9.5371 -0.139957 10.4431 0.418576 11.0023L0.419694 11.0034L7.57464 18.1584C8.13425 18.7164 9.04029 18.7151 9.59837 18.1555C9.64229 18.1115 9.68329 18.0646 9.72112 18.0153C10.1223 17.4169 10.0347 16.6166 9.51363 16.1192L5.5641 12.1554C5.35416 11.9452 5.11277 11.769 4.84861 11.633L4.41931 11.4399H18.4716C19.2026 11.467 19.844 10.9564 19.9813 10.2378C20.1078 9.45772 19.578 8.72277 18.7979 8.59622Z" fill="white"/>
</g>
<defs>
<clipPath id="clip0_18_67">
<rect width="20" height="20" fill="white"/>
</clipPath>
</defs>
</svg>
