<svg width="30" height="30" viewBox="0 0 30 30" fill="none" xmlns="http://www.w3.org/2000/svg">
<path d="M10.6678 6.21262C10.4083 6.20781 10.1537 6.28378 9.9392 6.43002C9.72475 6.57626 9.56106 6.78553 9.47077 7.02889C9.38049 7.27225 9.36807 7.53765 9.43525 7.78838C9.50242 8.0391 9.64587 8.26275 9.84573 8.42837L17.4945 14.9764L9.841 21.5244C9.70118 21.6264 9.584 21.7562 9.49687 21.9057C9.40973 22.0551 9.35453 22.2211 9.33475 22.393C9.31496 22.5649 9.33103 22.739 9.38192 22.9044C9.43282 23.0698 9.51744 23.2228 9.63046 23.3538C9.74347 23.4848 9.88241 23.591 10.0385 23.6657C10.1946 23.7403 10.3645 23.7817 10.5375 23.7874C10.7104 23.7931 10.8826 23.7629 11.0433 23.6986C11.204 23.6344 11.3496 23.5375 11.4709 23.4142L20.2205 15.9355C20.3581 15.8179 20.4686 15.672 20.5444 15.5076C20.6201 15.3433 20.6594 15.1644 20.6594 14.9835C20.6594 14.8025 20.6201 14.6237 20.5444 14.4594C20.4686 14.295 20.3581 14.149 20.2205 14.0315L11.4709 6.52915C11.2492 6.33176 10.9646 6.21957 10.6678 6.21262Z" fill="black"/>
</svg>
