<svg width="41" height="15" viewBox="0 0 41 15" fill="none" xmlns="http://www.w3.org/2000/svg">
<path d="M8.816 10.848V2.912H4.976L4.928 4.544C4.896 5.23733 4.848 5.89333 4.784 6.512C4.73067 7.13067 4.64533 7.696 4.528 8.208C4.41067 8.70933 4.256 9.136 4.064 9.488C3.88267 9.84 3.65333 10.0907 3.376 10.24L0.608 9.888C0.992 9.89867 1.30667 9.76533 1.552 9.488C1.808 9.21067 2.01067 8.82133 2.16 8.32C2.30933 7.808 2.416 7.21067 2.48 6.528C2.55467 5.84533 2.608 5.104 2.64 4.304L2.768 0.799999H11.376V10.848H8.816ZM0.24 14.32L0.256 9.888H12.944V14.32H10.544V12H2.64V14.32H0.24ZM19.6489 12V10.32L19.4889 9.952V6.944C19.4889 6.41067 19.3235 5.99467 18.9929 5.696C18.6729 5.39733 18.1769 5.248 17.5049 5.248C17.0462 5.248 16.5929 5.32267 16.1449 5.472C15.7075 5.61067 15.3342 5.80267 15.0249 6.048L14.1289 4.304C14.5982 3.97333 15.1635 3.71733 15.8249 3.536C16.4862 3.35467 17.1582 3.264 17.8409 3.264C19.1529 3.264 20.1715 3.57333 20.8969 4.192C21.6222 4.81067 21.9849 5.776 21.9849 7.088V12H19.6489ZM17.0249 12.128C16.3529 12.128 15.7769 12.016 15.2969 11.792C14.8169 11.5573 14.4489 11.2427 14.1929 10.848C13.9369 10.4533 13.8089 10.0107 13.8089 9.52C13.8089 9.008 13.9315 8.56 14.1769 8.176C14.4329 7.792 14.8329 7.49333 15.3769 7.28C15.9209 7.056 16.6302 6.944 17.5049 6.944H19.7929V8.4H17.7769C17.1902 8.4 16.7849 8.496 16.5609 8.688C16.3475 8.88 16.2409 9.12 16.2409 9.408C16.2409 9.728 16.3635 9.984 16.6089 10.176C16.8649 10.3573 17.2115 10.448 17.6489 10.448C18.0649 10.448 18.4382 10.352 18.7689 10.16C19.0995 9.95733 19.3395 9.664 19.4889 9.28L19.8729 10.432C19.6915 10.9867 19.3609 11.408 18.8809 11.696C18.4009 11.984 17.7822 12.128 17.0249 12.128ZM25.9931 12V4.864L26.5531 5.44H23.0811V3.392H31.3851V5.44H27.9131L28.4731 4.864V12H25.9931ZM37.8676 12V10.32L37.7076 9.952V6.944C37.7076 6.41067 37.5423 5.99467 37.2116 5.696C36.8916 5.39733 36.3956 5.248 35.7236 5.248C35.265 5.248 34.8116 5.32267 34.3636 5.472C33.9263 5.61067 33.553 5.80267 33.2436 6.048L32.3476 4.304C32.817 3.97333 33.3823 3.71733 34.0436 3.536C34.705 3.35467 35.377 3.264 36.0596 3.264C37.3716 3.264 38.3903 3.57333 39.1156 4.192C39.841 4.81067 40.2036 5.776 40.2036 7.088V12H37.8676ZM35.2436 12.128C34.5716 12.128 33.9956 12.016 33.5156 11.792C33.0356 11.5573 32.6676 11.2427 32.4116 10.848C32.1556 10.4533 32.0276 10.0107 32.0276 9.52C32.0276 9.008 32.1503 8.56 32.3956 8.176C32.6516 7.792 33.0516 7.49333 33.5956 7.28C34.1396 7.056 34.849 6.944 35.7236 6.944H38.0116V8.4H35.9956C35.409 8.4 35.0036 8.496 34.7796 8.688C34.5663 8.88 34.4596 9.12 34.4596 9.408C34.4596 9.728 34.5823 9.984 34.8276 10.176C35.0836 10.3573 35.4303 10.448 35.8676 10.448C36.2836 10.448 36.657 10.352 36.9876 10.16C37.3183 9.95733 37.5583 9.664 37.7076 9.28L38.0916 10.432C37.9103 10.9867 37.5796 11.408 37.0996 11.696C36.6196 11.984 36.001 12.128 35.2436 12.128Z" fill="black"/>
</svg>
