<svg width="29" height="30" viewBox="0 0 29 30" fill="none" xmlns="http://www.w3.org/2000/svg">
<g clip-path="url(#clip0_18_2)">
<path d="M21.8633 13.4233C22.4889 13.4233 22.9961 12.9162 22.9961 12.2905C22.9961 11.6649 22.4889 11.1577 21.8633 11.1577C21.2376 11.1577 20.7305 11.6649 20.7305 12.2905C20.7305 12.9162 21.2376 13.4233 21.8633 13.4233Z" fill="black"/>
<path d="M24.4688 2.66162H22.9961V1.52881C22.9961 0.903156 22.4889 0.395996 21.8633 0.395996C21.2376 0.395996 20.7305 0.903156 20.7305 1.52881V2.66162H15.5762V1.52881C15.5762 0.903156 15.069 0.395996 14.4434 0.395996C13.8177 0.395996 13.3105 0.903156 13.3105 1.52881V2.66162H8.21289V1.52881C8.21289 0.903156 7.70573 0.395996 7.08008 0.395996C6.45443 0.395996 5.94727 0.903156 5.94727 1.52881V2.66162H4.53125C2.03272 2.66162 0 4.69434 0 7.19287V24.8647C0 27.3633 2.03272 29.396 4.53125 29.396H13.1973C13.8229 29.396 14.3301 28.8888 14.3301 28.2632C14.3301 27.6375 13.8229 27.1304 13.1973 27.1304H4.53125C3.28198 27.1304 2.26562 26.114 2.26562 24.8647V7.19287C2.26562 5.94361 3.28198 4.92725 4.53125 4.92725H5.94727V6.06006C5.94727 6.68571 6.45443 7.19287 7.08008 7.19287C7.70573 7.19287 8.21289 6.68571 8.21289 6.06006V4.92725H13.3105V6.06006C13.3105 6.68571 13.8177 7.19287 14.4434 7.19287C15.069 7.19287 15.5762 6.68571 15.5762 6.06006V4.92725H20.7305V6.06006C20.7305 6.68571 21.2376 7.19287 21.8633 7.19287C22.4889 7.19287 22.9961 6.68571 22.9961 6.06006V4.92725H24.4688C25.718 4.92725 26.7344 5.94361 26.7344 7.19287V13.6499C26.7344 14.2756 27.2415 14.7827 27.8672 14.7827C28.4928 14.7827 29 14.2756 29 13.6499V7.19287C29 4.69434 26.9673 2.66162 24.4688 2.66162Z" fill="black"/>
<path d="M22.1465 15.689C18.3674 15.689 15.293 18.7634 15.293 22.5425C15.293 26.3215 18.3674 29.396 22.1465 29.396C25.9255 29.396 29 26.3215 29 22.5425C29 18.7634 25.9255 15.689 22.1465 15.689ZM22.1465 27.1304C19.6167 27.1304 17.5586 25.0723 17.5586 22.5425C17.5586 20.0127 19.6167 17.9546 22.1465 17.9546C24.6762 17.9546 26.7344 20.0127 26.7344 22.5425C26.7344 25.0723 24.6762 27.1304 22.1465 27.1304Z" fill="black"/>
<path d="M23.7891 21.4097H23.2793V20.2202C23.2793 19.5946 22.7721 19.0874 22.1465 19.0874C21.5208 19.0874 21.0137 19.5946 21.0137 20.2202V22.5425C21.0137 23.1681 21.5208 23.6753 22.1465 23.6753H23.7891C24.4147 23.6753 24.9219 23.1681 24.9219 22.5425C24.9219 21.9168 24.4147 21.4097 23.7891 21.4097Z" fill="black"/>
<path d="M16.9355 13.4233C17.5612 13.4233 18.0684 12.9162 18.0684 12.2905C18.0684 11.6649 17.5612 11.1577 16.9355 11.1577C16.3099 11.1577 15.8027 11.6649 15.8027 12.2905C15.8027 12.9162 16.3099 13.4233 16.9355 13.4233Z" fill="black"/>
<path d="M12.0078 18.3511C12.6334 18.3511 13.1406 17.8439 13.1406 17.2183C13.1406 16.5926 12.6334 16.0854 12.0078 16.0854C11.3822 16.0854 10.875 16.5926 10.875 17.2183C10.875 17.8439 11.3822 18.3511 12.0078 18.3511Z" fill="black"/>
<path d="M7.08008 13.4233C7.70571 13.4233 8.21289 12.9162 8.21289 12.2905C8.21289 11.6649 7.70571 11.1577 7.08008 11.1577C6.45444 11.1577 5.94727 11.6649 5.94727 12.2905C5.94727 12.9162 6.45444 13.4233 7.08008 13.4233Z" fill="black"/>
<path d="M7.08008 18.3511C7.70571 18.3511 8.21289 17.8439 8.21289 17.2183C8.21289 16.5926 7.70571 16.0854 7.08008 16.0854C6.45444 16.0854 5.94727 16.5926 5.94727 17.2183C5.94727 17.8439 6.45444 18.3511 7.08008 18.3511Z" fill="black"/>
<path d="M7.08008 23.2788C7.70571 23.2788 8.21289 22.7716 8.21289 22.146C8.21289 21.5204 7.70571 21.0132 7.08008 21.0132C6.45444 21.0132 5.94727 21.5204 5.94727 22.146C5.94727 22.7716 6.45444 23.2788 7.08008 23.2788Z" fill="black"/>
<path d="M12.0078 23.2788C12.6334 23.2788 13.1406 22.7716 13.1406 22.146C13.1406 21.5204 12.6334 21.0132 12.0078 21.0132C11.3822 21.0132 10.875 21.5204 10.875 22.146C10.875 22.7716 11.3822 23.2788 12.0078 23.2788Z" fill="black"/>
<path d="M12.0078 13.4233C12.6334 13.4233 13.1406 12.9162 13.1406 12.2905C13.1406 11.6649 12.6334 11.1577 12.0078 11.1577C11.3822 11.1577 10.875 11.6649 10.875 12.2905C10.875 12.9162 11.3822 13.4233 12.0078 13.4233Z" fill="black"/>
</g>
<defs>
<clipPath id="clip0_18_2">
<rect width="29" height="29" fill="white" transform="translate(0 0.395996)"/>
</clipPath>
</defs>
</svg>
