<svg width="43" height="43" viewBox="0 0 43 43" fill="none" xmlns="http://www.w3.org/2000/svg">
<path d="M20.7949 0.942263C17.5306 0.953367 14.4883 1.08661 11.7125 1.27536C6.11646 1.69728 1.67516 6.16079 1.28655 11.7679C0.822452 18.2661 0.822452 24.7892 1.28655 31.2874C1.70847 36.8945 6.17197 41.3358 11.7791 41.7245C18.2745 42.1797 24.7921 42.1797 31.2875 41.7245C36.8946 41.3025 41.3359 36.839 41.7245 31.2319C42.1909 24.7254 42.1798 18.1967 41.7245 11.6902C41.5196 8.98394 40.3459 6.44227 38.4187 4.53136C36.4914 2.62044 33.9399 1.46838 31.232 1.28646C27.7586 1.03906 24.2771 0.924242 20.7949 0.942263ZM23.0489 11.0129C24.3292 10.9861 25.5999 11.2403 26.7713 11.7577C27.9428 12.275 28.9866 13.0429 29.8292 14.0072C30.6718 14.9716 31.2928 16.109 31.6483 17.3392C32.0039 18.5695 32.0854 19.8628 31.8871 21.1279L31.7427 21.994L30.0217 21.7275L30.155 20.8615C30.3276 19.7704 30.2398 18.654 29.8987 17.6033C29.5577 16.5526 28.973 15.5975 28.1924 14.8158C27.4119 14.0342 26.4576 13.4482 25.4074 13.1057C24.3572 12.7631 23.2408 12.6738 22.1495 12.8449L21.2835 12.9893L21.0059 11.2572L21.8831 11.1128C22.2688 11.05 22.6582 11.0129 23.0489 11.0018V11.0129ZM14.3106 11.0462C14.4584 11.0064 14.6141 11.0059 14.7621 11.0449C14.9102 11.0838 15.0454 11.1608 15.1545 11.2683L18.974 15.0989C19.1327 15.2626 19.2215 15.4816 19.2215 15.7096C19.2215 15.9376 19.1327 16.1566 18.974 16.3202L18.1968 17.1086C17.9177 17.385 17.7431 17.7496 17.7026 18.1403C17.6621 18.531 17.7583 18.9237 17.9747 19.2515C19.4848 21.5499 21.45 23.5151 23.7484 25.0252C24.4368 25.4693 25.3251 25.3805 25.8913 24.8031L26.6685 24.0259C26.7501 23.944 26.8469 23.879 26.9536 23.8346C27.0604 23.7903 27.1748 23.7674 27.2903 23.7674C27.4059 23.7674 27.5203 23.7903 27.627 23.8346C27.7337 23.879 27.8306 23.944 27.9121 24.0259L31.7427 27.8454C31.8246 27.9269 31.8896 28.0238 31.934 28.1305C31.9783 28.2372 32.0012 28.3516 32.0012 28.4672C32.0012 28.5827 31.9783 28.6972 31.934 28.8039C31.8896 28.9106 31.8246 29.0075 31.7427 29.089L30.3992 30.4214C29.5367 31.2846 28.406 31.8285 27.1932 31.9637C25.9804 32.099 24.7577 31.8174 23.7262 31.1653C18.9389 28.1291 14.8819 24.0721 11.8457 19.2848C11.1914 18.2528 10.9075 17.029 11.0407 15.8143C11.1738 14.5996 11.7161 13.4664 12.5785 12.6007L13.9109 11.2683C14.0222 11.1602 14.1601 11.0836 14.3106 11.0462ZM23.1266 14.5104C23.8874 14.4938 24.6427 14.6423 25.3406 14.9458C26.0384 15.2493 26.6621 15.7005 27.1687 16.2684C27.6753 16.8362 28.0528 17.5071 28.275 18.2349C28.4973 18.9627 28.5591 19.73 28.4562 20.484L28.3229 21.35L26.5908 21.1057L26.7019 20.2508C26.7797 19.7146 26.7316 19.1677 26.5612 18.6534C26.3908 18.139 26.103 17.6715 25.7204 17.2878C25.3378 16.9042 24.8711 16.615 24.3572 16.4432C23.8434 16.2714 23.2966 16.2217 22.7602 16.298L21.8831 16.4313L21.6499 14.677L22.5159 14.5659C22.7182 14.5353 22.9221 14.5167 23.1266 14.5104Z" fill="black"/>
</svg>
