<svg width="30" height="30" viewBox="0 0 30 30" fill="none" xmlns="http://www.w3.org/2000/svg">
<path d="M1.84219 20.25C1.91906 20.1891 7.5 16.1663 9.03188 16.455C9.76313 16.5844 10.1812 17.0831 11.0203 18.0816C11.1553 18.2428 11.4797 18.6291 11.7319 18.9037C12.2621 18.7308 12.7794 18.5203 13.2797 18.2738C15.862 17.0166 17.9484 14.9301 19.2056 12.3478C19.4523 11.8476 19.6629 11.3303 19.8356 10.8C19.56 10.5469 19.1737 10.2225 19.0087 10.0837C18.015 9.24937 17.5153 8.83125 17.3859 8.09812C17.1206 6.57937 21.1406 0.96 21.1828 0.909375C21.3652 0.648816 21.6032 0.432059 21.8797 0.274784C22.1561 0.11751 22.4641 0.0236514 22.7812 0C24.4106 0 29.0625 6.03469 29.0625 7.05094C29.0625 7.11 28.9772 13.1137 21.5738 20.6447C14.0503 28.0397 8.0475 28.125 7.98844 28.125C6.97125 28.125 0.9375 23.4731 0.9375 21.8438C0.960894 21.5277 1.05419 21.2208 1.21064 20.9451C1.36709 20.6695 1.5828 20.4321 1.84219 20.25Z" fill="white"/>
</svg>
